# xmcd
#
# Track frame offsets: 
#        150
#        2563
#        28458
#        43966
#        61470
#        73906
#        94538
#        99143
#        109662
#        126201
#        140254
#        161754
#        174390
#        188124
#        203793
#        228700
#        240232
#        255997
#
# Disc length: 3474 seconds
#
# Revision: 1
# Processed by: cddbd v1.5.2PL0 Copyright (c) Steve Scherf et al.
# Submitted via: ExactAudioCopyFreeDBPlugin 1.0
#
DISCID=f20d9012
DTITLE=Opa Cupa - Cesare Dell'Anna - CentrodiPermanenzaTemporanea
DYEAR=2009
DGENRE=Jazz
TTITLE0=01 A tubo
TTITLE1=02 Vota grillo
TTITLE2=03 CPT due parole inutili
TTITLE3=04 My favorite thinghs
TTITLE4=05 Opa Cupa
TTITLE5=06 Balkan Trap
TTITLE6=07 I clowns
TTITLE7=08 Ebb Tide
TTITLE8=09 Ciganja
TTITLE9=10 Tirane mon amour
TTITLE10=11 Neelie
TTITLE11=12 Mr Hozic
TTITLE12=13 A rota
TTITLE13=14 Fraima
TTITLE14=15 Extasi di stelle salenti
TTITLE15=16 Baresha
TTITLE16=17 Dell acqua
TTITLE17=18 God save the Queen
EXTD=YEAR: 2009
EXTT0=
EXTT1=
EXTT2=
EXTT3=
EXTT4=
EXTT5=
EXTT6=
EXTT7=
EXTT8=
EXTT9=
EXTT10=
EXTT11=
EXTT12=
EXTT13=
EXTT14=
EXTT15=
EXTT16=
EXTT17=
PLAYORDER=
